<?xml version="1.0" standalone="no"?>
<!DOCTYPE svg PUBLIC "-//W3C//DTD SVG 20010904//EN"
 "http://www.w3.org/TR/2001/REC-SVG-20010904/DTD/svg10.dtd">
<svg version="1.0" xmlns="http://www.w3.org/2000/svg"
 width="2656.000000pt" height="542.000000pt" viewBox="0 0 2656.000000 542.000000"
 preserveAspectRatio="xMidYMid meet">

<g transform="translate(0.000000,542.000000) scale(0.100000,-0.100000)"
fill="#4a4a4a" stroke="none">
<path d="M2570 5253 c-468 -12 -1107 -85 -1285 -145 -347 -118 -648 -385 -805
-713 -70 -146 -97 -244 -124 -450 -109 -819 -102 -1653 19 -2485 35 -239 91
-387 223 -590 76 -116 249 -287 378 -373 199 -132 347 -185 621 -222 448 -59
719 -77 1168 -78 609 -1 1301 64 1558 144 403 127 743 464 882 873 46 136 99
578 126 1040 13 229 7 811 -11 1051 -29 392 -87 805 -130 937 -68 203 -176
374 -340 538 -235 235 -466 348 -810 395 -251 34 -596 63 -890 75 -238 9 -342
10 -580 3z m-828 -1434 c139 -30 380 -202 629 -449 177 -176 366 -415 415
-525 28 -64 24 -186 -8 -257 -93 -202 -413 -564 -678 -767 -105 -81 -225 -160
-274 -182 -144 -63 -342 -10 -445 121 -81 102 -100 234 -52 361 29 76 77 128
179 195 106 69 194 138 287 224 70 65 165 172 165 185 0 4 -39 48 -87 97 -98
100 -209 191 -355 292 -111 76 -151 118 -187 196 -23 48 -26 68 -25 155 0 117
17 163 88 242 86 96 220 139 348 112z m2441 -1597 c79 -39 111 -80 129 -164
25 -118 -39 -218 -166 -257 -66 -20 -88 -21 -590 -21 -601 0 -595 -1 -675 78
-39 37 -51 58 -61 101 -25 108 21 206 124 258 69 35 167 41 726 39 l445 -1 68
-33z" fill="#0054a6"/>
<path d="M8155 4021 c-23 -10 -53 -32 -67 -49 -53 -63 -53 -73 -52 -1355 l2
-1179 33 -29 c91 -80 226 -104 319 -57 87 45 96 75 110 353 12 260 13 1635 0
1920 -14 305 -31 365 -117 401 -48 21 -179 18 -228 -5z"/>
<path d="M19967 3986 c-101 -27 -132 -73 -147 -217 -11 -105 -14 -2016 -3
-2244 l6 -140 46 -38 c26 -21 70 -45 100 -54 113 -32 244 17 298 112 14 26 29
39 39 37 9 -2 46 -25 83 -51 98 -70 128 -87 216 -117 76 -27 89 -28 245 -28
186 1 259 15 395 78 308 142 505 463 522 848 7 143 -5 237 -44 368 -85 288
-277 511 -538 624 l-70 31 -225 0 c-210 0 -230 -2 -293 -23 -79 -28 -143 -69
-239 -153 l-68 -61 0 453 0 454 -62 57 c-83 78 -148 94 -261 64z m973 -1244
c92 -32 141 -62 195 -116 97 -100 145 -237 145 -416 0 -168 -39 -276 -139
-383 -87 -93 -196 -137 -340 -137 -147 0 -274 52 -362 148 -88 96 -149 255
-149 387 0 229 189 494 382 535 64 14 205 4 268 -18z"/>
<path d="M22138 3982 c-21 -9 -64 -39 -96 -66 l-59 -49 -6 -971 c-3 -534 -3
-1077 1 -1207 l7 -235 30 -60 c37 -71 87 -103 173 -111 87 -8 136 10 204 74
l58 56 0 1226 0 1227 -52 51 c-29 29 -70 59 -90 68 -49 20 -124 19 -170 -3z"/>
<path d="M5979 3793 c-90 -96 -84 -2 -84 -1235 l0 -1088 65 -65 65 -64 420 -7
c611 -9 790 7 960 91 154 75 257 178 330 330 54 113 70 177 69 290 0 98 -25
197 -71 290 -31 62 -150 178 -229 224 -33 19 -70 41 -83 49 l-25 15 36 31 c19
17 60 51 91 75 106 82 174 194 203 333 50 238 -92 522 -329 657 -185 105 -200
107 -887 116 l-486 7 -45 -49z m940 -383 c119 -17 239 -99 281 -193 30 -66 27
-161 -8 -228 -75 -143 -229 -189 -639 -189 l-163 0 0 317 0 316 233 -7 c127
-4 261 -11 296 -16z m-199 -1005 c342 -9 400 -23 484 -116 76 -83 102 -190 71
-294 -13 -46 -28 -69 -73 -115 -47 -46 -69 -60 -127 -78 -86 -28 -254 -41
-502 -42 l-183 0 0 330 0 330 53 -5 c28 -2 153 -7 277 -10z"/>
<path d="M16540 3810 c-307 -8 -413 -16 -450 -35 -64 -33 -100 -104 -100 -197
1 -107 49 -181 130 -199 51 -12 343 -29 493 -29 77 0 109 -4 112 -12 2 -7 9
-447 15 -978 l10 -965 38 -33 c52 -47 102 -71 165 -78 117 -14 213 37 237 124
23 87 29 326 30 1129 l0 821 293 4 c308 4 337 8 390 56 62 56 80 172 39 252
-33 63 -80 109 -124 121 -86 23 -737 32 -1278 19z"/>
<path d="M9459 3250 c-176 -25 -352 -121 -490 -267 -253 -269 -335 -680 -209
-1055 90 -268 242 -448 475 -564 97 -49 121 -56 205 -65 111 -13 307 -5 398
16 86 20 146 53 248 135 48 38 91 70 95 70 4 0 10 -17 14 -37 9 -50 47 -98 98
-125 34 -18 59 -23 128 -23 78 0 90 3 134 30 65 40 92 93 106 210 15 121 6
1362 -10 1455 -22 122 -83 179 -202 188 -115 8 -197 -35 -245 -130 -15 -30
-29 -46 -36 -42 -6 4 -45 32 -87 62 -97 69 -175 108 -253 127 -79 19 -282 27
-369 15z m368 -461 c123 -41 228 -130 284 -242 81 -157 76 -403 -12 -566 -105
-199 -339 -297 -552 -231 -207 64 -325 217 -359 462 -16 127 -7 187 47 295 80
161 209 274 345 303 64 13 175 4 247 -21z"/>
<path d="M13298 3249 c-277 -40 -539 -240 -697 -530 -78 -143 -83 -168 -89
-406 -5 -255 3 -314 62 -439 102 -215 241 -364 440 -470 259 -138 524 -159
789 -64 245 89 470 309 571 560 99 243 100 506 3 743 -38 94 -120 225 -188
301 -105 118 -308 243 -454 280 -133 33 -312 44 -437 25z m293 -445 c157 -36
310 -191 354 -359 19 -75 19 -247 0 -338 -45 -213 -249 -376 -472 -377 -222 0
-388 129 -469 366 -33 97 -39 256 -12 340 89 281 330 429 599 368z"/>
<path d="M15420 3250 c-90 -19 -181 -70 -267 -151 -28 -27 -56 -49 -62 -49 -6
0 -20 18 -30 39 -43 83 -134 134 -237 133 -66 0 -108 -19 -169 -74 l-50 -46 0
-778 c0 -878 0 -873 65 -935 43 -41 100 -59 187 -59 105 1 168 46 193 139 18
69 29 308 30 646 0 366 9 467 48 545 30 61 90 113 150 130 20 5 135 10 254 10
l217 0 34 34 c130 129 91 322 -81 398 -52 23 -210 33 -282 18z"/>
<path d="M10931 3171 c-103 -97 -103 -247 -1 -323 37 -27 143 -37 514 -47 181
-6 330 -12 331 -13 1 -2 -144 -167 -323 -368 -493 -555 -593 -681 -622 -786
-12 -42 -12 -56 3 -113 22 -82 41 -110 98 -138 76 -39 200 -46 824 -47 532 -1
583 0 612 16 113 63 140 255 46 340 -54 50 -178 64 -645 74 -164 4 -298 10
-298 13 0 3 163 184 362 401 410 448 508 562 544 637 24 47 26 61 22 152 l-3
100 -64 65 -64 64 -111 6 c-61 3 -351 7 -644 10 l-532 4 -49 -47z"/>
<path d="M18280 3195 c-92 -17 -212 -76 -317 -154 -128 -95 -177 -159 -281
-367 -73 -146 -77 -167 -77 -454 1 -181 5 -268 14 -300 17 -60 91 -207 143
-283 53 -80 209 -233 281 -275 154 -92 298 -127 491 -119 199 7 318 53 459
175 27 23 52 42 57 42 5 0 18 -17 29 -38 27 -52 101 -118 147 -131 103 -29
184 -9 264 66 l60 55 0 812 0 812 -52 51 c-62 59 -96 78 -159 88 -108 16 -192
-37 -281 -179 -5 -7 -22 4 -50 31 -79 75 -183 131 -298 158 -93 23 -336 28
-430 10z m483 -463 c93 -46 187 -143 237 -246 50 -101 64 -173 57 -301 -16
-318 -258 -535 -551 -495 -154 22 -306 133 -378 277 -65 131 -72 330 -17 478
42 111 135 222 229 270 83 43 141 55 252 52 96 -3 113 -7 171 -35z"/>
<path d="M23465 3200 c-342 -53 -662 -347 -747 -685 -19 -78 -22 -116 -22
-280 0 -146 4 -206 17 -259 90 -358 344 -609 720 -709 72 -19 107 -22 282 -21
184 0 208 2 300 27 245 66 395 196 395 342 0 52 -50 119 -113 149 -54 27 -55
27 -113 12 -33 -8 -102 -31 -154 -50 -157 -57 -215 -70 -330 -69 -82 0 -120 5
-170 22 -165 56 -301 201 -353 379 l-16 52 472 0 c472 1 700 9 776 30 128 34
188 200 142 393 -40 167 -120 306 -247 428 -130 124 -246 186 -409 220 -105
22 -342 32 -430 19z m368 -434 c106 -51 186 -151 232 -287 l24 -69 -460 0
-460 0 6 23 c16 57 86 186 123 227 89 100 198 141 367 137 98 -2 116 -5 168
-31z"/>
<path d="M25551 3195 c-77 -22 -138 -58 -221 -131 -40 -35 -76 -64 -80 -64 -4
0 -15 18 -25 41 -39 86 -155 148 -256 136 -59 -7 -91 -23 -150 -76 l-46 -40
-7 -668 c-7 -664 -1 -907 25 -983 31 -92 138 -141 269 -124 89 12 139 61 161
160 5 27 14 267 19 534 10 530 16 591 67 664 16 21 48 53 71 70 l44 31 241 5
c160 3 249 9 263 17 32 18 76 88 90 144 27 103 -21 204 -125 262 -51 29 -63
31 -170 34 -81 2 -132 -2 -170 -12z"/>
</g>
</svg>
